<svg width="160" height="100" viewBox="0 0 160 100" fill="none" xmlns="http://www.w3.org/2000/svg">
<g clip-path="url(#clip0_137_5998)">
<path d="M75.0704 81.1973C74.0999 80.5104 73.3701 79.6229 72.7736 78.6102C70.11 79.5723 67.5627 79.426 65.2745 77.6418C63.0388 75.8985 61.8436 73.5153 61.9071 70.5115C61.3368 70.3414 60.7874 70.2062 60.256 70.0145C57.1259 68.8848 54.955 65.6616 54.8654 62.1531C54.823 60.4915 55.2167 58.9814 55.979 57.5649C56.1433 57.2597 56.1224 57.0894 55.8917 56.8632C54.6292 55.6255 53.8728 54.08 53.6342 52.2868C53.3393 50.0704 53.8593 48.0694 55.2424 46.3484C56.0947 45.288 57.1031 44.4571 58.336 43.9503C58.1366 43.1322 57.8696 42.3448 57.7604 41.5332C57.3582 38.5445 58.262 35.9994 60.2366 33.8797C61.5333 32.4877 63.1586 31.7446 64.9475 31.3933C65.3013 31.3238 65.4298 31.1649 65.497 30.7927C66.0891 27.5147 68.3484 25.0842 71.6909 24.9362C72.4761 24.9014 73.2743 25.1983 74.1741 25.3623C75.2439 23.8657 76.7293 22.888 78.7179 22.865C80.6879 22.8422 82.2574 23.6326 83.4719 25.3271C84.6503 23.6683 86.2308 22.8357 88.1507 22.8892C90.0623 22.9426 91.6418 23.7993 92.8233 25.5105C93.709 24.9732 94.6726 24.8692 95.6683 24.9108C98.9879 25.0497 101.546 27.4771 102.019 30.9753C102.059 31.2744 102.203 31.297 102.418 31.332C104.895 31.7363 106.885 33.0518 108.312 35.2061C109.869 37.5575 110.273 40.1668 109.414 42.9443C109.328 43.222 109.246 43.5008 109.166 43.7804C109.154 43.8218 109.164 43.8704 109.164 43.9341C111.656 45.0883 113.26 47.0761 113.806 49.9122C114.368 52.8255 113.364 55.2091 111.329 57.1373C112.733 59.8593 113.113 62.6247 111.877 65.4895C110.644 68.3451 108.423 69.8266 105.601 70.4835C105.618 73.4865 104.501 75.8939 102.19 77.6322C99.8848 79.3655 97.3865 79.5865 94.7584 78.6221C92.6808 82.7624 86.8473 83.6306 83.7062 79.2326C82.5701 80.8867 81.0629 81.903 79.1475 82.116C77.7208 82.2747 76.3452 82.035 75.0704 81.1973ZM62.385 35.2509C60.1631 37.0763 59.4071 40.0439 60.46 42.7389C60.653 43.2329 60.9258 43.4961 61.4454 43.6294C63.6332 44.1905 65.4019 45.3532 66.2594 47.7137C66.5128 48.4115 66.2977 49.061 65.6553 49.4927C65.2105 49.7916 64.6204 49.6537 64.1874 49.1167C64.0402 48.9341 63.9375 48.7043 63.8408 48.4831C63.1969 47.01 61.2565 45.8735 59.8658 46.1627C57.9606 46.5589 56.4333 48.2589 56.1101 50.3431C55.7777 52.4868 56.7363 54.6327 58.4868 55.6775C58.6208 55.7575 58.7583 55.8567 58.8522 55.9825C59.3615 56.6649 59.3325 57.2168 58.8826 57.968C58.4036 58.7675 57.8053 59.5572 57.5783 60.4439C56.7429 63.7071 58.4971 67.0719 62.177 67.7679C62.4198 67.8138 62.5205 67.7031 62.6444 67.4898C63.0319 66.8228 63.4091 66.1377 63.8791 65.5385C65.1181 63.9587 66.7235 63.0938 68.6628 62.9718C69.5826 62.914 70.1665 63.4967 70.1022 64.3798C70.0461 65.15 69.6084 65.5775 68.7546 65.6456C66.2282 65.8473 64.5981 68.3685 64.4214 70.163C64.2245 72.1625 64.9575 73.8837 66.4996 75.1357C68.4929 76.7541 70.6139 76.6803 72.8057 75.6595C73.0363 75.5522 73.292 75.4374 73.5344 75.4411C74.1192 75.4501 74.4854 75.7914 74.6646 76.3984C75.0676 77.7633 75.8388 78.8353 77.1165 79.3368C80.1944 80.5449 82.838 78.2214 82.8539 75.043C82.9113 63.6247 82.8765 52.206 82.8765 40.7875C82.8765 40.6257 82.8765 40.4639 82.8765 40.1953C82.6664 40.3539 82.542 40.4484 82.4169 40.5421C81.4188 41.2898 80.2918 41.6438 79.0915 41.7661C78.5853 41.8176 78.183 41.6202 77.9161 41.1482C77.4291 40.2871 77.8016 39.3881 78.7314 39.0902C79.3925 38.8784 80.087 38.6988 80.677 38.3385C81.9791 37.5432 82.7265 36.3361 82.719 34.6758C82.7107 32.8241 82.7199 30.9725 82.7162 29.1208C82.7135 27.8043 82.1824 26.769 81.1843 26.0164C79.4871 24.7366 76.9001 25.5448 76.3186 27.5681C76.0747 28.4167 75.0485 28.8225 74.3847 28.3251C73.277 27.495 72.07 27.4182 70.813 27.6947C69.804 27.9167 69.0303 28.5365 68.447 29.4417C67.8222 30.4114 67.5908 31.5549 67.7233 32.6336C67.903 34.0955 68.7415 35.1809 70.136 35.6887C70.8151 35.9359 71.1512 36.675 70.9621 37.3145C70.7742 37.9498 70.0506 38.309 69.3517 38.0951C68.2592 37.7608 67.3377 37.1247 66.6742 36.1473C66.2218 35.481 65.8745 34.7337 65.45 33.9681C64.3921 34.1115 63.3498 34.4782 62.385 35.2509ZM98.0267 63.9599C98.3578 63.2688 98.8115 63.0406 99.6564 63.1679C100.913 63.3572 102.054 63.8505 103.067 64.6724C104.052 65.4715 104.804 66.478 105.404 67.622C105.502 67.8095 105.572 67.9938 105.855 67.9327C107.207 67.6404 108.432 67.1071 109.348 65.9518C111.079 63.7692 111.341 60.4891 109.143 58.0149C108.687 57.5017 108.659 56.7245 109.137 56.2274C109.425 55.9287 109.771 55.6929 110.095 55.4352C111.929 53.9784 112.528 51.4078 111.587 49.1881C110.834 47.412 108.7 45.7468 106.808 46.4798C105.633 46.9352 104.633 47.5582 104.145 48.8636C104.082 49.0321 103.982 49.1931 103.871 49.3316C103.46 49.8436 102.926 49.9433 102.391 49.6251C101.806 49.2773 101.575 48.719 101.754 48.0772C102.006 47.1733 102.437 46.3797 103.065 45.7138C104.104 44.6139 105.356 43.9577 106.793 43.6808C106.952 43.6502 107.163 43.5957 107.239 43.474C107.445 43.1427 107.64 42.786 107.756 42.4103C108.929 38.6342 106.584 34.7406 102.913 34.1505C102.586 34.0979 102.471 34.2247 102.351 34.5279C101.632 36.3472 100.491 37.7105 98.647 38.2757C97.9286 38.4959 97.3176 38.174 97.1119 37.4805C96.8943 36.7468 97.209 36.1162 97.9087 35.8249C98.2566 35.6801 98.6332 35.5467 98.9155 35.3019C100.134 34.2455 100.675 32.8832 100.371 31.2089C99.7251 27.6453 96.0556 26.9791 93.9776 28.4137C93.1684 28.9723 92.3635 28.7695 91.9302 27.8568C91.461 26.8685 90.9082 25.9612 89.7963 25.6429C87.6598 25.0314 85.5038 26.8509 85.5034 29.3013C85.5012 41.9385 85.5025 54.5758 85.5026 67.213C85.5026 67.3603 85.5026 67.5075 85.5026 67.7136C85.6238 67.6532 85.6889 67.629 85.7459 67.5911C86.6599 66.9835 87.6571 66.6572 88.7281 66.5519C89.4853 66.4776 90.0239 66.8475 90.1846 67.5975C90.3406 68.3261 89.9845 68.9381 89.2496 69.1773C88.9321 69.2805 88.6029 69.3424 88.2844 69.4424C86.3563 70.0476 85.2226 71.6572 85.2227 73.7798C85.2227 74.3044 85.2408 74.8299 85.2189 75.3535C85.1745 76.4117 85.521 77.3061 86.1402 78.1165C87.5852 80.0075 90.0014 80.3742 91.8525 78.9607C92.65 78.3517 93.1135 77.4974 93.4264 76.5265C93.7042 75.6643 94.5634 75.349 95.2793 75.8205C95.4265 75.9175 95.5789 76.0113 95.7391 76.0797C98.098 77.0879 101.315 76.6267 102.924 73.6208C103.626 72.3081 104.033 70.896 103.416 69.3979C102.592 67.3983 101.328 65.9891 99.137 65.7774C98.2254 65.6894 97.8368 65.0029 98.0267 63.9599Z" fill="#F4AF32"/>
<path d="M78.4756 94.6083C77.8199 93.8688 77.1957 93.1425 76.5492 92.4395C76.4171 92.2959 76.2057 92.1699 76.023 92.1565C75.5038 92.1187 74.9806 92.1439 74.459 92.1427C74.3432 92.1425 74.2249 92.1509 74.1121 92.1294C73.6521 92.0421 73.2984 91.3306 73.3343 90.5796C73.372 89.7922 73.7299 89.2344 74.2351 89.1834C74.35 89.1718 74.4667 89.1795 74.5826 89.1795C80.5812 89.1794 86.5797 89.1793 92.5783 89.1794C93.3892 89.1794 93.8065 89.5788 93.8412 90.4505C93.8544 90.7815 93.8149 91.1331 93.718 91.4468C93.5769 91.9039 93.284 92.1846 92.7727 92.1506C92.2676 92.1169 91.7582 92.1607 91.2521 92.1366C90.9587 92.1225 90.7885 92.2292 90.6187 92.4892C89.3815 94.3839 87.7788 95.7759 85.6542 96.3776C82.9895 97.1321 80.6214 96.4313 78.4756 94.6083Z" fill="#F4AF32"/>
<path d="M85.5007 87.7778C81.2553 87.7778 77.0534 87.7711 72.8515 87.7852C72.2434 87.7873 71.8074 87.5604 71.5691 86.9705C71.3119 86.3338 71.3663 85.6971 71.8363 85.2171C72.0593 84.9894 72.4441 84.838 72.7587 84.8321C74.6127 84.7969 76.4676 84.8148 78.3223 84.8148C83.7123 84.8148 89.1023 84.8201 94.4923 84.807C95.0617 84.8056 95.4907 85.0023 95.7411 85.5371C96.0126 86.1171 95.9843 86.703 95.629 87.2448C95.3786 87.6268 95.0303 87.7842 94.5854 87.7828C91.5717 87.7732 88.5579 87.7778 85.5007 87.7778Z" fill="#F4AE31"/>
<path d="M44.3423 78.6469C43.652 78.2449 43.1617 77.7056 43.1626 76.8631C43.1636 75.9954 43.5793 75.3373 44.2823 74.9068C46.615 73.4783 48.9502 72.0546 51.2895 70.6383C52.2331 70.067 53.2665 70.3376 53.9221 71.3017C54.4727 72.1115 54.3176 73.2004 53.5316 73.9555C53.3614 74.119 53.1677 74.2615 52.9683 74.3829C50.7203 75.7517 48.466 77.1087 46.2209 78.4829C45.6203 78.8505 45.0231 79.0143 44.3423 78.6469Z" fill="#F4AF32"/>
<path d="M120.841 27.8082C121.514 27.3372 122.191 27.0646 122.947 27.461C123.635 27.8217 124.156 28.3641 124.173 29.2253C124.189 30.0724 123.794 30.7342 123.112 31.1724C122.468 31.5864 121.807 31.9725 121.154 32.3704C119.432 33.419 117.717 34.4799 115.986 35.5114C114.871 36.176 113.385 35.4399 113.114 34.1206C112.951 33.3244 113.404 32.342 114.178 31.8678C116.388 30.5156 118.602 29.1727 120.841 27.8082Z" fill="#F4AF32"/>
<path d="M60.8511 10.0305C61.9058 9.86818 62.6793 10.276 63.1971 11.2401C64.4973 13.6607 65.7642 16.1026 67.1105 18.4938C67.7916 19.7036 67.2144 20.9839 66.3874 21.4904C65.4793 22.0466 64.3601 21.6811 63.7564 20.5885C63.0082 19.2341 62.2905 17.8605 61.5573 16.4966C60.9176 15.3066 60.2758 14.118 59.6329 12.9299C59.1595 12.0551 59.5777 10.7346 60.5035 10.1961C60.6047 10.1372 60.7137 10.0936 60.8511 10.0305Z" fill="#F4AE32"/>
<path d="M114.378 70.5343C115.103 70.2832 115.727 70.4203 116.356 70.8112C118.554 72.1773 120.772 73.5087 122.98 74.8564C123.773 75.34 124.218 76.2497 124.102 77.1275C123.918 78.521 122.37 79.2274 121.123 78.4766C119.424 77.4532 117.73 76.4191 116.033 75.3904C115.455 75.0398 114.874 74.6949 114.297 74.342C113.608 73.9202 113.212 73.2918 113.165 72.4403C113.113 71.5006 113.559 70.9004 114.378 70.5343Z" fill="#F4AF32"/>
<path d="M100.396 20.8007C99.8437 19.9369 99.8338 19.0897 100.307 18.2147C101.598 15.8261 102.879 13.4314 104.166 11.0408C104.811 9.84487 106.314 9.47151 107.168 10.2901C107.851 10.9445 108.048 12.1277 107.583 13.001C106.263 15.4781 104.933 17.9491 103.596 20.4164C103.136 21.2658 102.186 21.7299 101.337 21.463C101 21.3573 100.721 21.0452 100.396 20.8007Z" fill="#F4AF32"/>
<path d="M51.7091 31.0674C52.1632 31.3457 52.5972 31.5939 53.0167 31.8674C53.824 32.3937 54.2237 33.478 53.9619 34.3903C53.6322 35.5395 52.1462 36.0801 51.0654 35.4275C49.3155 34.3709 47.573 33.3003 45.8271 32.2361C45.2744 31.8993 44.7201 31.5656 44.1677 31.2281C43.4282 30.7763 42.9918 29.9009 43.0885 29.069C43.2546 27.6401 44.806 26.8809 46.0643 27.6327C47.5664 28.53 49.0557 29.4512 50.5508 30.3618C50.9277 30.5913 51.3051 30.8198 51.7091 31.0674Z" fill="#F4AF32"/>
<path d="M47.6654 51.17C48.7088 51.5246 49.2841 52.444 49.1278 53.4633C48.9738 54.4674 48.1412 55.172 47.1043 55.1722C44.4517 55.1729 41.7992 55.1733 39.1466 55.1721C37.9833 55.1716 37.134 54.2989 37.1392 53.114C37.1442 51.9639 38.0005 51.1117 39.1559 51.1112C41.8085 51.1101 44.4611 51.11 47.1137 51.1129C47.286 51.1131 47.4582 51.1424 47.6654 51.17Z" fill="#F4AF32"/>
<path d="M120.054 50.9386C122.761 50.9386 125.427 50.9358 128.094 50.9403C128.992 50.9418 129.744 51.5351 129.989 52.4129C130.236 53.2981 129.912 54.2197 129.109 54.7132C128.825 54.8883 128.457 54.9855 128.126 54.9882C125.445 55.0097 122.763 54.9609 120.084 55.0201C119.049 55.043 118.069 54.1193 118.041 53.017C118.013 51.9019 118.874 50.9944 120.054 50.9386Z" fill="#F4AF32"/>
<path d="M85.5027 13.2404C85.5026 13.6102 85.5062 13.9339 85.5017 14.2574C85.4865 15.3751 84.6673 16.2813 83.6549 16.304C82.6166 16.3272 81.7028 15.4529 81.6938 14.3315C81.6703 11.3882 81.6709 8.44448 81.6929 5.50116C81.7013 4.37792 82.6166 3.49346 83.6501 3.51846C84.6668 3.54305 85.4955 4.44556 85.4992 5.56569C85.5075 8.10849 85.5024 10.6513 85.5027 13.2404Z" fill="#F4AE32"/>
<path d="M78.3942 47.6588C79.2233 48.6057 79.7186 49.7114 80.0582 50.903C80.253 51.5861 79.8948 52.2989 79.2848 52.4923C78.6048 52.7079 77.9524 52.3383 77.7518 51.6151C77.5638 50.9371 77.4002 50.2478 76.9523 49.8309C76.3445 50.5657 75.7968 51.3406 75.1411 51.9925C74.3075 52.8211 73.2386 53.2044 72.1344 53.4459C71.4417 53.5974 70.8515 53.2003 70.708 52.5194C70.5565 51.8004 70.9195 51.1642 71.583 50.938C72.0632 50.7743 72.5522 50.6173 73.0031 50.3828C73.8689 49.9327 74.4881 49.2242 74.8008 48.1809C74.29 47.9308 73.7401 47.7507 73.2183 47.8861C72.7028 48.0198 72.3339 47.8918 72.0094 47.5328C71.6464 47.1311 71.6699 46.629 71.8362 46.1453C72.0419 45.5472 72.4973 45.2792 73.2423 45.3138C75.2223 45.4059 76.9857 46.0525 78.3942 47.6588Z" fill="#F4AF33"/>
<path d="M79.3802 67.3021C78.9593 67.5664 78.5564 67.5676 78.1438 67.3842C77.68 67.1781 77.2154 66.9741 76.7252 66.7577C76.5277 67.5211 76.6432 68.2448 76.8482 68.9542C76.9624 69.3496 77.1321 69.7273 77.2824 70.1104C77.5498 70.7916 77.314 71.516 76.7142 71.843C76.1729 72.138 75.463 71.9264 75.1439 71.2951C74.4438 69.9097 74.1112 68.4189 74.2385 66.8444C74.2864 66.2518 74.4591 65.671 74.5677 65.0834C74.5883 64.9716 74.6214 64.8145 74.5698 64.743C73.997 63.95 73.6378 63.06 73.3508 62.1092C73.1263 61.3656 73.303 60.7893 74.0126 60.5207C74.7797 60.2304 75.4647 60.6624 75.6757 61.5666C76.0589 63.2091 77.0339 64.2772 78.5061 64.8573C78.6544 64.9158 78.8128 64.9459 78.9672 64.9861C79.4833 65.1203 79.8016 65.4795 79.9193 66.0135C80.0381 66.5527 79.8354 66.9769 79.3802 67.3021Z" fill="#F4AF33"/>
<path d="M73.6316 34.2231C74.4581 33.0263 75.4491 32.1152 76.7823 31.6928C77.7995 31.3704 78.8134 31.4311 79.8126 31.7737C80.4397 31.9887 80.8148 32.7187 80.6558 33.3455C80.4903 33.998 79.8416 34.3808 79.146 34.2521C78.8079 34.1895 78.4622 34.1 78.1248 34.1193C77.1716 34.1737 76.515 34.7764 75.9284 35.521C75.6695 35.8496 75.3472 36.1418 75.0071 36.3727C74.5175 36.705 73.9845 36.5983 73.5845 36.1711C73.2035 35.7644 73.1199 35.1584 73.3798 34.6394C73.4476 34.504 73.5341 34.3794 73.6316 34.2231Z" fill="#F4AF33"/>
<path d="M65.2072 55.2666C64.7344 56.5185 65.0113 57.5596 65.8774 58.4514C66.4345 59.025 66.4964 59.8818 66.0122 60.4396C65.5586 60.9621 64.7302 60.9415 64.1761 60.3939C62.3046 58.5446 61.9572 56.046 63.2221 53.6745C63.417 53.309 63.5619 52.929 63.9818 52.7898C64.5025 52.6171 65.0129 52.7787 65.381 53.2476C65.7173 53.6759 65.7616 54.1955 65.5018 54.7128C65.4131 54.8893 65.3159 55.0609 65.2072 55.2666Z" fill="#F4AF33"/>
<path d="M87.6196 45.6905C88.7446 42.5154 91.5241 40.6074 94.6742 40.8247C95.2883 40.8671 95.7194 41.373 95.7601 42.0994C95.7986 42.7848 95.4379 43.3007 94.7946 43.4198C94.1715 43.5352 93.542 43.6115 92.8688 43.712C92.9568 44.4134 93.2853 44.8848 93.687 45.3056C94.2811 45.928 95.0149 46.2834 95.8119 46.4994C96.2316 46.6132 96.6119 46.7717 96.8168 47.2212C97.0217 47.6707 97.0373 48.1097 96.7662 48.5354C96.4885 48.9714 96.1013 49.1724 95.6104 49.0893C93.6244 48.753 92.0685 47.7233 91.0409 45.8513C90.9462 45.6786 90.8524 45.5052 90.7524 45.336C90.7321 45.3017 90.6855 45.285 90.6288 45.2442C90.1114 45.7084 89.9251 46.3513 89.768 47.007C89.652 47.4909 89.4177 47.8378 88.9374 47.9699C88.0388 48.217 87.3212 47.6027 87.4028 46.6184C87.4279 46.3162 87.5354 46.0218 87.6196 45.6905Z" fill="#F4AF33"/>
<path d="M91.4546 62.9146C92.0549 61.4915 92.1943 60.2562 91.8246 59.5757C91.3117 59.7963 90.7984 60.0318 90.2751 60.2386C89.5686 60.5177 88.8026 60.1295 88.5936 59.406C88.4001 58.7361 88.8843 57.9674 89.6058 57.7853C91.3042 57.3567 92.3395 56.1894 92.8087 54.4407C93.1072 53.3276 94.0315 52.9045 94.8682 53.5548C95.359 53.9363 95.4669 54.505 95.2798 55.0463C94.9876 55.8913 94.6022 56.7026 94.2152 57.5058C94.1024 57.74 94.0304 57.9109 94.1125 58.1777C94.7592 60.2793 94.4187 62.2882 93.5495 64.2284C93.2543 64.8875 92.5502 65.1261 91.963 64.8325C91.3071 64.5046 91.1089 63.7922 91.4546 62.9146Z" fill="#F4AF33"/>
<path d="M86.9703 33.1048C86.9503 32.235 87.278 31.7824 88.0177 31.5543C90.7685 30.7059 93.0384 32.307 94.2914 34.5793C94.5745 35.0928 94.3661 35.7839 93.8734 36.1707C93.4156 36.53 92.7837 36.4805 92.3677 36.0452C92.0204 35.6817 91.6806 35.3101 91.3355 34.9442C90.5885 34.1521 89.7268 33.7941 88.657 34.053C87.7817 34.2648 87.2442 33.9455 86.9703 33.1048Z" fill="#F4AF33"/>
<path d="M104.819 55.0937C105.349 57.2922 104.63 59.0314 103.186 60.5066C102.761 60.9415 101.909 60.9011 101.509 60.4853C101.07 60.0284 101.03 59.187 101.425 58.6646C101.497 58.5689 101.583 58.4849 101.664 58.3968C102.61 57.3679 102.755 56.0748 102.061 54.8523C101.553 53.9582 101.944 52.9646 102.891 52.7404C103.401 52.6198 103.916 52.9037 104.127 53.4163C104.353 53.9641 104.582 54.51 104.819 55.0937Z" fill="#F4AF33"/>
</g>
<defs>
<clipPath id="clip0_137_5998">
<rect width="167" height="100" fill="white"/>
</clipPath>
</defs>
</svg>
